<svg xmlns="http://www.w3.org/2000/svg" width="14" height="14" viewBox="0 0 14 14" fill="none">
    <path d="M12.8491 3.10072H9.59937V2.01529C9.58412 1.5992 9.40452 1.20614 9.09993 0.922257C8.79534 0.638378 8.39062 0.486852 7.97448 0.500896H6.02462C5.60849 0.486852 5.20377 0.638378 4.89918 0.922257C4.59458 1.20614 4.41498 1.5992 4.39973 2.01529V3.10072H1.14996C0.977576 3.10072 0.812258 3.16919 0.690367 3.29108C0.568477 3.41297 0.5 3.57829 0.5 3.75067C0.5 3.92305 0.568477 4.08837 0.690367 4.21026C0.812258 4.33215 0.977576 4.40063 1.14996 4.40063H1.79991V11.5501C1.79991 12.0673 2.00534 12.5632 2.37101 12.9289C2.73668 13.2946 3.23264 13.5 3.74978 13.5H10.2493C10.7665 13.5 11.2624 13.2946 11.6281 12.9289C11.9938 12.5632 12.1992 12.0673 12.1992 11.5501V4.40063H12.8491C13.0215 4.40063 13.1868 4.33215 13.3087 4.21026C13.4306 4.08837 13.4991 3.92305 13.4991 3.75067C13.4991 3.57829 13.4306 3.41297 13.3087 3.29108C13.1868 3.16919 13.0215 3.10072 12.8491 3.10072ZM5.69964 9.60027C5.69964 9.77265 5.63116 9.93797 5.50927 10.0599C5.38738 10.1817 5.22206 10.2502 5.04969 10.2502C4.87731 10.2502 4.71199 10.1817 4.5901 10.0599C4.46821 9.93797 4.39973 9.77265 4.39973 9.60027V7.00045C4.39973 6.82807 4.46821 6.66275 4.5901 6.54086C4.71199 6.41897 4.87731 6.35049 5.04969 6.35049C5.22206 6.35049 5.38738 6.41897 5.50927 6.54086C5.63116 6.66275 5.69964 6.82807 5.69964 7.00045V9.60027ZM5.69964 2.01529C5.69964 1.9113 5.83613 1.80081 6.02462 1.80081H7.97448C8.16297 1.80081 8.29946 1.9113 8.29946 2.01529V3.10072H5.69964V2.01529ZM9.59937 9.60027C9.59937 9.77265 9.5309 9.93797 9.40901 10.0599C9.28712 10.1817 9.1218 10.2502 8.94942 10.2502C8.77704 10.2502 8.61172 10.1817 8.48983 10.0599C8.36794 9.93797 8.29946 9.77265 8.29946 9.60027V7.00045C8.29946 6.82807 8.36794 6.66275 8.48983 6.54086C8.61172 6.41897 8.77704 6.35049 8.94942 6.35049C9.1218 6.35049 9.28712 6.41897 9.40901 6.54086C9.5309 6.66275 9.59937 6.82807 9.59937 7.00045V9.60027Z" fill="white"/>
</svg>
